PathFileType	4	(X/Y/Z)	Patient4_TMGait_0pt4_03_right_18.trc.trc
DataRate	CameraRate	NumFrames	NumMarkers	Units	OrigDataRate	OrigDataStartFrame	OrigNumFrames
75.268817204301	75.268817204301	6	33	mm	75.268817204301	89	       141
Frame#	Time	Sacral			L.Shoulder			Chest			R.Shoulder			Neck			R.ASIS			L.ASIS			R.Thigh.Superior			R.Thigh.Lateral			R.Thigh.Inferior			R.Patella			L.Thigh.Superior			L.Thigh.Lateral			L.Thigh.Inferior			L.Patella			L.Shank.Superior			L.Shank.Lateral			L.Shank.Inferior			R.Shank.Superior			R.Shank.Lateral			R.Shank.Inferior			R.Heel			R.Midfoot.Superior			R.Midfoot.Lateral			R.Toe			L.Heel			L.Midfoot.Lateral			L.Midfoot.Superior			L.Toe			L.Elbow			L.Wrist			R.Elbow			R.Wrist			
		X1	Y1	Z1	X2	Y2	Z2	X3	Y3	Z3	X4	Y4	Z4	X5	Y5	Z5	X6	Y6	Z6	X7	Y7	Z7	X8	Y8	Z8	X9	Y9	Z9	X10	Y10	Z10	X11	Y11	Z11	X12	Y12	Z12	X13	Y13	Z13	X14	Y14	Z14	X15	Y15	Z15	X16	Y16	Z16	X17	Y17	Z17	X18	Y18	Z18	X19	Y19	Z19	X20	Y20	Z20	X21	Y21	Z21	X22	Y22	Z22	X23	Y23	Z23	X24	Y24	Z24	X25	Y25	Z25	X26	Y26	Z26	X27	Y27	Z27	X28	Y28	Z28	X29	Y29	Z29	X30	Y30	Z30	X31	Y31	Z31	X32	Y32	Z32	X33	Y33	Z33	

89	23.999142857143	865.516194777127	1002.306882430685	467.295341055534	1014.443528425811	1423.053771704786	248.890350371738	1139.693726070995	1364.688661088173	397.391587729067	1080.662097255802	1444.909920567128	578.215810694448	1018.175628075186	1492.369195654691	401.662745189619	1104.065477282414	939.005394413697	558.212344690035	1063.830742077282	962.312039193007	288.071254025905	1147.356860271095	736.837987202776	532.994876930776	1079.599500012788	625.493484927552	606.856987336729	1155.441064236122	569.378390572561	526.143175288775	1152.387102976046	461.189990222608	549.498087815884	1132.582674284730	759.998987673019	315.588363629383	1054.316321088905	636.839662501005	258.191455007195	1148.938590775913	568.081767489460	317.757180022346	1155.881854312981	498.793973104623	325.619585475452	1133.873184239517	424.842380442971	317.349391396742	1050.497532201598	304.850190635762	270.054698166029	1113.089518950530	196.909383575787	336.851815300486	1076.998450529650	391.976948158589	560.070318262419	959.678272420945	348.768493751987	625.123801769813	945.256979088206	240.417171020437	575.719540350541	745.848171496365	167.844289741362	552.453085631889	914.480782984962	120.468943737889	595.365299846795	807.399742558355	114.695700482664	627.530662906154	986.201426103995	32.505849637252	625.355398440836	996.149441551039	38.314148100366	382.483090953604	1066.388600494074	35.355884903460	298.571717846427	1149.743339093781	97.426643076132	322.797934820468	1277.387436342828	47.689997836543	288.491256506833	969.928806896383	1068.860831913160	143.267518487195	1084.240285899702	831.341308716775	131.163218498627	1083.985293295648	1099.273506541358	709.399162661597	1212.691657256222	877.010864222955	662.651642608860	
90	24.012428571429	864.447567344582	1001.795046112288	464.058586883740	1015.289657275336	1422.962976774374	246.112015046570	1139.327649630994	1364.680574839952	395.667136161877	1078.780074791576	1444.919861254050	575.998596242409	1017.857178965808	1492.238423566543	398.977281651178	1103.082641639411	939.222613215161	556.241895470614	1063.934848621103	962.465191409705	285.847440700763	1152.106738317296	739.885966069197	530.681169087148	1087.865674100558	627.000426919204	604.877403741608	1165.659268799275	572.592940682776	524.350998906335	1164.454747873782	463.482551181153	547.769647125576	1131.895432469550	759.449827983535	313.540689429725	1053.431770173590	636.666160902882	256.150262975470	1147.411204138787	567.530542755296	316.282824598337	1153.975435990118	498.093893995387	324.331668276422	1131.516477238164	424.078337941536	316.297110278024	1047.552897251310	304.505792045260	269.136193468963	1108.996528609897	196.449649954266	336.619745696967	1087.820209801311	394.408628251439	558.546754717076	969.386667038735	354.569688781399	623.927172365319	952.201812388254	246.415022045891	575.375822685486	751.466408986277	182.710685090545	552.385512619199	917.244872938114	125.199137262799	595.237192745669	809.776336660525	125.945372285579	627.499640000549	982.591414324397	31.446768581801	625.184930636065	990.828052264577	38.287025493480	382.423847588050	1061.052757625636	35.296801977280	298.499772525603	1144.496726657355	97.263216359485	322.810997501758	1272.120512679176	47.348536769889	288.453518475308	974.356474042222	1069.021373312997	138.073726550294	1094.304573661898	834.228471303651	126.400069085950	1077.897584190553	1099.996177526569	708.880440871606	1203.488361069677	874.693270722257	668.512405516333	
91	24.025714285714	863.228074425745	1001.244526329485	460.894575239500	1016.065108471814	1422.886976425484	243.545387062337	1138.855027831969	1364.616389335229	394.156425084874	1076.758491683035	1444.819899287367	573.998571076665	1017.502603688685	1492.082562429833	396.505653242439	1102.000200993331	939.496722241216	554.417615207408	1063.912577162376	962.539254480983	283.715207098458	1156.559996679184	743.222215115855	528.363304405432	1095.852112300553	628.893575320732	602.927427293496	1175.495956194534	576.301967017912	522.559505625688	1176.289323298036	466.345576147851	545.943073336408	1131.297428340396	758.953729144465	311.573923043898	1052.646173769764	636.453369263584	254.268422657705	1146.082633288278	566.991991271650	314.861438873672	1152.306568821620	497.394334538517	323.137658365248	1129.353800069477	423.292700624106	315.346449411565	1044.729027084322	304.200548758585	268.282714558271	1104.976966399205	195.975964761580	336.401692779728	1098.590575428372	397.303616707972	556.939234754084	979.286881101767	360.525179873908	622.720166851558	959.576195336082	252.594815817571	574.931265750855	758.009671595066	197.257497230870	552.320060813541	920.767553022482	130.320569819835	594.948979116483	813.192961259874	137.190007016811	627.403258462583	979.878351989396	30.540667382086	624.782250936610	985.513444419106	38.273353125566	382.347805654149	1055.731782645614	35.259543860811	298.422967454303	1139.267499743542	97.119776649906	322.826129746727	1266.869789240477	47.014488250346	288.416365563789	979.036061523470	1069.267873864459	132.996529690990	1104.343233652917	837.228639584297	121.882320690731	1071.536541198092	1100.573135517847	708.380233333300	1193.903284122087	872.400416132276	674.635533159470	
92	24.039000000000	861.905466616635	1000.709019621733	457.803724258875	1016.755005920942	1422.873251977732	241.191142975773	1138.273256630554	1364.554262947394	392.848626275398	1074.602041744033	1444.659764844775	572.206849690075	1017.104119160005	1491.944483591671	394.249299017538	1100.824942385568	939.873988372340	552.720422275516	1063.794345735218	962.554607217789	281.693873134866	1160.620074116702	746.817096060687	526.040170471515	1103.441393831410	631.177710843559	601.024347411323	1184.797930400601	580.479523735909	520.767347562350	1187.748709976536	469.754217011485	544.080353076754	1130.788041214078	758.492702302841	309.672547950633	1051.896384255244	636.198823613607	252.576289871626	1144.887263883187	566.449977887831	313.506027537187	1150.803190898247	496.696468690601	322.062007593591	1127.321127199897	422.498594544615	314.514293759621	1041.974642227586	303.939701242012	267.514864678927	1100.998055094670	195.497288217495	336.205463624594	1109.175068417095	400.632319468041	555.307871054579	989.217220510476	366.525407570570	621.517174168071	967.310213260283	258.797884472994	574.398162684808	765.326334960559	210.969673835259	552.281064309912	925.140546670415	135.666630731805	594.492361308818	817.680822328855	147.977548499318	627.231561652334	978.436462221707	29.928199533431	624.055040564728	980.203410851303	38.271740385610	382.259628436822	1050.422831176013	35.242603320857	298.344292715313	1134.049354003575	96.998615712848	322.842010372755	1261.630565721648	46.696504259854	288.377759274483	983.980195691815	1069.641758763149	128.083097435801	1114.342668244026	840.353468949515	117.672818013907	1064.998362083201	1101.053441526633	707.868460190614	1183.949002074123	870.156275973090	680.924574547628	
93	24.052285714286	860.529708808567	1000.235728800671	454.787794615508	1017.365220977619	1422.962826726518	239.041314082849	1137.590212725894	1364.546169631838	391.731919136295	1072.317820738127	1444.487875212196	570.609120472194	1016.658267529268	1491.862769932943	392.203036229122	1099.558222386331	940.386774956974	551.134269041461	1063.616342197461	962.535653572339	279.802170097825	1164.219960153665	750.627637117634	523.728985226128	1110.544526181115	633.838723026014	599.197940662700	1193.446397543170	585.073506799482	518.988258827406	1198.708243964001	473.665344329011	542.249215528182	1130.342966069057	758.044813934846	307.842338777521	1051.120682954690	635.908214490775	251.087261160586	1143.741700584765	565.891653115350	312.238764112809	1149.370245994901	496.000382577674	321.122308604295	1125.335227705224	421.709993071188	313.808929476211	1039.227205195395	303.723056088729	266.843757263843	1097.018945484549	195.022444197696	336.036126636374	1119.463493610400	404.339033410358	553.714908568529	999.037387433037	372.431419021338	620.333476297460	975.354906219323	264.837956412286	573.793082001358	773.260498518030	223.308043519912	552.284641060872	930.470973153851	141.026270348908	593.867665865674	823.264362485137	157.825026011637	626.975289308365	978.685910648621	29.728064900517	622.931832632959	974.893979125618	38.280204736903	382.164772172835	1045.121366341108	35.242749864863	298.266762751124	1128.835365299501	96.899119984574	322.856844179778	1256.396982878714	46.398889140673	288.336266451401	989.175411879119	1070.180189277007	123.376988028753	1124.281364018516	843.616892076619	113.826358857454	1058.384884393447	1101.485460231096	707.319321631354	1173.661819306320	867.997971678512	687.270397292542	
94	24.065571428571	859.146453763147	999.861716502034	451.849692005723	1017.920834947632	1423.186767574376	237.082248869134	1136.824278798514	1364.632545828874	390.794893509180	1069.918003692905	1444.346940276882	569.187671859571	1016.168004642441	1491.868473043522	390.356997868439	1098.199227421605	941.051930162855	549.649589600221	1063.417551838073	962.510766029271	278.054238584747	1167.324477837157	754.601897868383	521.463510061820	1117.101451339516	636.845025024399	597.488494516440	1201.359163243640	590.009266831282	517.250928920556	1209.063019530362	478.020868744983	540.518736347633	1129.919790851385	757.590614598215	306.109591627997	1050.263697677428	635.594911547010	249.798723037104	1142.556039459362	565.309778554587	311.085265269606	1147.903379483373	495.306712076328	320.327078925314	1123.305268317308	420.941113307046	313.229028025277	1036.420324130031	303.546779835210	266.271482378590	1092.995940332183	194.559733985336	335.895034265069	1129.373030464429	408.345525815764	552.218971431799	1008.637341844594	378.078323381748	619.184707006371	983.688432390054	270.510147266037	573.135027700460	781.680686926181	233.753440084927	552.327953194900	936.875495355944	146.157801541247	593.088771976026	829.965331879820	166.261785186318	626.624328264679	981.049814553396	30.003997344701	621.386561911920	969.580365571914	38.296438533879	382.068680904884	1039.822372969502	35.255933392856	298.192908384615	1123.618814688005	96.818861853046	322.868455542969	1251.162947072604	46.123136843531	288.290999802583	994.584342548024	1070.911267743134	118.915856084467	1134.129758667346	847.031276142079	110.387812176197	1051.793407130567	1101.910587599954	706.712156139567	1163.101577612725	865.970342139693	693.555203509688	
